/* XPM */
static char *_17a1a66b5494b91ab039dcf02f6f1635N2gZNqzzmsydbhn[] = {
/* columns rows colors chars-per-pixel */
"42 42 193 2 ",
"   c black",
".  c #060101",
"X  c #020507",
"o  c #040406",
"O  c #080000",
"+  c #0E0101",
"@  c #0B0703",
"#  c #0A0604",
"$  c #0D0706",
"%  c #0A0800",
"&  c #0E0907",
"*  c #0F0C04",
"=  c #050709",
"-  c #0C0709",
";  c #08080A",
":  c #0E0A08",
">  c #090A0C",
",  c gray6",
"<  c #120703",
"1  c #160700",
"2  c #180A03",
"3  c #180804",
"4  c #1A0C06",
"5  c #1E0F07",
"6  c #110C0A",
"7  c #14110C",
"8  c #0A1414",
"9  c gray8",
"0  c #2D0000",
"q  c #210E03",
"w  c #340101",
"e  c #380703",
"r  c #390706",
"t  c #27140A",
"y  c #392319",
"u  c #3D291C",
"i  c #1D0935",
"p  c #190F35",
"a  c #180839",
"s  c #210E38",
"d  c #192320",
"f  c #1D2726",
"g  c #1E2826",
"h  c #202824",
"j  c #4F0F0B",
"k  c #53130C",
"l  c #57160E",
"z  c #551F0B",
"x  c #4D0F10",
"c  c #531715",
"v  c #591813",
"b  c #5B350F",
"n  c #5D350F",
"m  c #5F3915",
"M  c #623610",
"N  c #633910",
"B  c #663B13",
"V  c #663C12",
"C  c #683C15",
"Z  c #603C18",
"A  c #402C20",
"S  c #583F2E",
"D  c #1E5C00",
"F  c #216400",
"G  c #246800",
"H  c #286C00",
"J  c #61400F",
"K  c #6B4113",
"L  c #7A4C35",
"P  c #7E4C35",
"I  c #1D3F54",
"U  c #2D3249",
"Y  c #2F324D",
"T  c #2F354C",
"R  c #213B4E",
"E  c #223F4F",
"W  c #34334A",
"Q  c #35364A",
"!  c #31364F",
"~  c #353A52",
"^  c #3A576D",
"/  c #3C5C73",
"(  c #3F5E76",
")  c #414141",
"_  c #464646",
"`  c #4D4847",
"'  c #48494A",
"]  c #4A4A4C",
"[  c #4D4D4F",
"{  c #425B6E",
"}  c #43627A",
"|  c #5B6371",
" . c #5D6371",
".. c #5D6674",
"X. c #5F6778",
"o. c #616877",
"O. c #666A75",
"+. c #636B7B",
"@. c #646C7D",
"#. c gray48",
"$. c #815326",
"%. c #835426",
"&. c #875427",
"*. c #895727",
"=. c #83542A",
"-. c #85572C",
";. c #8C5A29",
":. c #8E5A2C",
">. c #905F2A",
",. c #804D35",
"<. c #815036",
"1. c #845239",
"2. c #87553C",
"3. c #925F30",
"4. c #956730",
"5. c #926337",
"6. c #835742",
"7. c #985745",
"8. c #94574A",
"9. c #98534C",
"0. c #9F544D",
"q. c #9B5B4C",
"w. c #A0574D",
"e. c #A15F4E",
"r. c #A55A52",
"t. c #A75F50",
"y. c #A95F56",
"u. c #9F715B",
"i. c #AC6255",
"p. c #A76A53",
"a. c #A96D56",
"s. c #AF6E54",
"d. c #A0715B",
"f. c #A7765D",
"g. c #AA785E",
"h. c #B5735A",
"j. c #BB7B5F",
"k. c #AA7860",
"l. c #AD7B63",
"z. c #4B8F01",
"x. c #499600",
"c. c #579C0C",
"v. c #74C40C",
"b. c #B69232",
"n. c #BD9633",
"m. c #C19935",
"M. c #C49B39",
"N. c #C79E3C",
"B. c #C9A23C",
"V. c #80D017",
"C. c #CF9075",
"Z. c #D49476",
"A. c #D89778",
"S. c #DC9C79",
"D. c #DB997C",
"F. c #DE9C7F",
"G. c #E19F7F",
"H. c #EBAE71",
"J. c #E1A47F",
"K. c #FFBD7B",
"L. c #EAC77B",
"P. c #FFC07E",
"I. c #F7F27F",
"U. c #677080",
"Y. c #6A7188",
"T. c #727A92",
"R. c #737B94",
"E. c #767E97",
"W. c #728BA0",
"Q. c #7690A2",
"!. c #7992A5",
"~. c #7897AE",
"^. c #76EBEB",
"/. c #848484",
"(. c #9098AE",
"). c #949CB4",
"_. c #99A2BA",
"`. c #9CA5BD",
"'. c #A0A0A2",
"]. c #A5A5A5",
"[. c #E1A181",
"{. c #F7D684",
"}. c #F3D191",
"|. c #FAD994",
" X c #FFDB99",
".X c #FFDE9C",
"XX c #FCF784",
"oX c #FFE1A4",
"OX c #80FFFF",
"+X c #C8C6CD",
"@X c #F8F2F1",
"#X c #FCF7F5",
"$X c #FFFFF7",
/* pixels */
"$X$X$X$X$X$X$X$X$X$X$X$X$X$X$X$X$X$X$X$X$X$X$X$X$X$X$X$X$X$X$X$X$X$X$X$X$X$X$X$X$X$X",
"OXOXOXOXOXOXOXOXOXOXOXOXOXOXOXOXOXOXOXOXOXOXOXOXOXOXOXOXOXOXOXOXOXOXOXOXOXOXOXOXOXOX",
"OXOXOXOXOXOXOXOXOXOXOXOXOXOXOXOXOXOXOX^.                8 OXOXOXOXOXOXOXOXOXOXOXOXOX",
"OXOXOXOXOXOXOXOXOXOXOXOXOXOXOXOXOX^.  o ' @.R.R.E.`.`._.Y.  8 OXOXOXOXOXOXOXOXOXOXOX",
"OXOXOXOXOXOXOXOXOXOXOXOXOXOXOXOX^.o ' +.+.+.+.+.@.R.R.T.+.o.) 8 OXOXOXOXOXOXOXOXOXOX",
"OXOXOXOXOXOXOXOXOXOXOXOXOXOXOX^.o _ ' +.+.@.R.R.R.E.`.`.`.`._.Y.8 OXOXOXOXOXOXOXOXOX",
"OXOXOXOXOXOXOXOXOXOXOXOXOXOXOX^.o _ ~ +.o.] R.T.U.`._.U.`._.U.(.8 OXOXOXOXOXOXOXOXOX",
"OXOXOXOXOXOXOXOXOXOXOXOXOXOXOX^.o _ ~ +.o.] R.T.U.`._.U.`._.U.(.8 OXOXOXOXOXOXOXOXOX",
"OXOXOXOXOXOXOXOXOXOXOXOXOXOXOX^.o _ ~ +.+.+.@.T.@.R.T.@.E._.@.Y.8 OXOXOXOXOXOXOXOXOX",
"OXOXOXOXOXOXOXOXOXOXOXOXOXOXOX^.o ' +.+.@./.'././././.].'.@.T.| 8 OXOXOXOXOXOXOXOXOX",
"OXOXOXOXOXOXOXOXOXOXOXOXOXOXOX^.o ' +.@./.'...g ' +.X.! ! ! ! ! U     8 OXOXOXOXOXOX",
"OXOXOXOXOXOXOXOXOXOXOXOXOXOXOX^.o _ ' +.+.o._ ] E.`.`.`.`.`.`.`.`.`.`.(.  8 OXOXOXOX",
"OXOXOXOXOXOXOXOXOXOXOXOXOXOX^.o _ ' @.E.`.`.`.`.).! ! ! ! ! ! ! ! ! ! U 8 OXOXOXOXOX",
"OXOXOXOXOXOXOXOXOXOXOX^.    ; +.o.[ `.).! ! ! ! W k k N N V *.N V -.U 8 OXOXOXOXOXOX",
"OXOXOXOXOXOXOXOXOXOX^.> R.T.X.! ! ! Q V :.0.k N N V >.n.N N N N V ;.>.b.8 OXOXOXOXOX",
"OXOXOXOXOXOXOXOXOX^.  o ! ! ! _ ` w.J x.z.C 0.k V ;.3.F.Z.N N N N V $.    8 OXOXOXOX",
"OXOXOXOXOXOXOXOXOXOXOX^.        @ 5.+XH V.#XA.&.l >.N.[.}.N N N V $.8 OXOX^.8 OXOXOX",
"OXOXOXOXOXOXOXOXOXOXOXOXOXOXOXOX^.$ y.F.F.F.F.A.:.t.M.j.}.N N N C w.b   8 OXOXOXOXOX",
"OXOXOXOXOXOX^.8 ^.8 OXOXOXOXOX^.9 @Xy.[..X|.N.A.;.>.M.h.s.N N N N C 9.  8 OXOXOXOXOX",
"OXOXOXOXOXOXOX^.  . 8 OXOXOX^.7 oX$X XP..X.X|.N.F.S.N.[.}.N N C w.b 8 OXOXOXOXOXOXOX",
"OXOXOXOXOXOXOXOX^.          8 ^.6 G.K.K.P..X|.N.A.r.w.C s.M k N C w.b 8 OXOXOXOXOXOX",
"OXOXOXOXOXOXOXOX^.  # 2.k.1.L   < :.r.y.[..X|.N.J.I.7.V ;.&.k N N m U 8 OXOXOXOXOXOX",
"OXOXOXOXOXOXOX^.: k.L : l.l.f.C d.% F G c..X XF.A.e.S.m.&.k k k N K b.  8 OXOXOXOXOX",
"OXOXOXOXOXOX^.    # L . A l.k.2.l.g.3.[..X XF.J.XXS.m.&.x i x i k b 8 OX^.8 OXOXOXOX",
"OXOXOXOXOX^.: f.b   # 6.Q.N M y k v g.4.XXJ.I.e.S.m.*.n 3 p D . k b 8 OXOXOXOXOXOXOX",
"OXOXOXOXOX^.@ N b   # 1.6.Q.N N N M j < ;.;.3.S.m.%.q =.s q.D . j 8 OXOXOXOXOXOXOXOX",
"OXOXOXOX^.: u.          - { N N N N M k k j r 8.Y a s $.  $ 9.    8 OXOXOXOXOXOXOXOX",
"OXOXOX^.          5     = { N B <.N N M k k j w z v.O.=.s r.i.H.  8 OXOXOXOXOXOXOXOX",
"OXOX^.              ,   X E N B 1.1.1.<.M k j w c  .2 4 U 6 D.p.    8 OXOXOXOXOXOXOX",
"OX^.: l.k.1.L         X R c { B 1.2.k.1.1.1.,.j 0 & h.a.f T d   . j   8 OXOXOXOXOXOX",
"^.: l.k.1.1.<.Z ( ( ( ( / I E N B 2.l.k.1.6.~.W.0 t F.C.2 h S S S M j .   8 OXOXOXOX",
"^.. u 1.<.N Z ^             = ( ( } ~.~.~.!.1.P e %.2 1   # 1.1.1.<.b   . j 8 OXOXOX",
"^.@ N N N b   8 OXOXOXOXOX^.  + k N B 1.1.1.1.1.L * B.{.L.j : l.k.1.L   . k j 8 OXOX",
"OX^.# 1.L 8 OXOXOXOXOXOXOX^.  . k k N B 1.1.1.1.L @ &.k k j # 1.1.1.P k j     8 OXOX",
"OXOX^.  8 OXOXOXOXOXOXOXOX^.  + k k N N N N N N N b       @ N B 1.1.<.b       8 OXOX",
"OXOXOXOXOXOXOXOXOXOXOXOXOXOX^.  . k N M j + k k k k k k k k k k N M j 8 OX^.  8 OXOX",
"OXOXOXOXOXOXOXOXOXOXOXOXOXOX^.  . @ b                         @ M j   8 OXOXOXOXOXOX",
"OXOXOXOXOXOXOXOXOXOXOXOXOXOX^.@ M j 8 OXOXOXOXOXOXOXOXOXOXOXOX^.. k j 8 OXOXOXOXOXOX",
"OXOXOXOXOXOXOXOXOXOXOXOXOX^.. k j 8 OXOXOXOXOXOXOXOXOXOXOXOXOXOX^.. k j 8 OXOXOXOXOX",
"OXOXOXOXOXOXOXOXOXOXOXOX^.  O O . 8 OXOXOXOXOXOXOXOXOXOXOXOXOXOX^.  O . 8 OXOXOXOXOX",
"OXOXOXOXOXOXOXOXOXOXOXOX^.  ; #.8 OXOXOXOXOXOXOXOXOXOXOXOXOXOXOXOX^.; #.. 8 OXOXOXOX",
"$X$X$X$X$X$X$X$X$X$X$X$X$X$X$X$X$X$X$X$X$X$X$X$X$X$X$X$X$X$X$X$X$X$X$X$X$X$X$X$X$X$X"
};
