/* XPM */
static char *result[] = {
/* columns rows colors chars-per-pixel */
"42 42 41 1 ",
"  c black",
". c #080000",
"X c #180800",
"o c #101010",
"O c #310000",
"+ c #211008",
"@ c #37251A",
"# c #180839",
"$ c #1B2623",
"% c #52100C",
"& c #633910",
"* c #583F2E",
"= c #216400",
"- c #1D3F54",
"; c #31364F",
": c #3F5E76",
"> c #464646",
", c #636B7B",
"< c #8C5A29",
"1 c #845239",
"2 c #9C5A4A",
"3 c #A55A52",
"4 c #B5735A",
"5 c #AD7B63",
"6 c #499600",
"7 c #75CC03",
"8 c #C59E36",
"9 c #DE9C7F",
"0 c #FFBD7B",
"q c #737B94",
"w c #7897AE",
"e c #848484",
"r c #9CA5BD",
"t c #A5A5A5",
"y c #F7D684",
"u c #FFDE9C",
"i c #FFFF84",
"p c #80FFFF",
"a c #D6CEDE",
"s c #FFFFF7",
"d c white",
/* pixels */
"ssssssssssssssssssssssssssssssssssssssssss",
"pppppppppppppppppppppppppppppppppppppppppp",
"ppppppppppppp         pppppppppppppppppppp",
"ppppppppppp  qrrrqqq,>  pppppppppppppppppp",
"pppppppppp >,,qqq,,,,,,> ppppppppppppppppp",
"ppppppppp qrrrrrqqqq,,,>> pppppppppppppppp",
"ppppppppp r,rr,rr,qq>,,;> pppppppppppppppp",
"ppppppppp r,rr,rr,qq>,,;> pppppppppppppppp",
"ppppppppp q,rq,qq,q,,,,;> pppppppppppppppp",
"ppppppppp ,q,tteeeete,,,> pppppppppppppppp",
"pppppp   ;;;;;;,,>$,te,,> pppppppppppppppp",
"pppp  rrrrrrrrrrrq>>,,,>> pppppppppppppppp",
"ppppp ;;;;;;;;;;;rrrrrq,>> ppppppppppppppp",
"pppppp ;<&&<&&&%%;;;;;rr>,,   pppppppppppp",
"ppppp 8<<&&&&&8<&&&%3<&;;;;,qq ppppppppppp",
"pppp   <&&&&&99<<&%3&66&3>>;;;  pppppppppp",
"ppp ppp <&&&&u98<%<9d7=a<     pppppppppppp",
"ppppp  &3&&&&u483<999993 ppppppppppppppppp",
"ppppp  3&&&&&448<<98uu93d pppppp p ppppppp",
"ppppppp &3&&&u98998uuu0udu pppp . pppppppp",
"pppppp &3&&%&4&3398uu0009 p      ppppppppp",
"pppppp ;&&&%<<&2i98uu933<. 1151  ppppppppp",
"ppppp  8&&%%%<89299uu6==.5&555 15 pppppppp",
"pppp pp &%#%#%<89i99uu9<55155@ 1   ppppppp",
"ppppppp &% =#X&<892i9i<5%%@&&w1  &5 pppppp",
"pppppppp % =3#<X<89<<<.%&&&&w11  && pppppp",
"pppppppp   3  <##;2O%%%&&&&&:.     5 ppppp",
"pppppppp  033#<,7%O%%%&&&1&&:   +     pppp",
"ppppppp   49 ;XX,%O%%&1111&&-  o       ppp",
"pppppp  %  $;$44 O%1111511&:%-     1155 pp",
"pppp  .%&***$X99XOww11551&&--:::::&11155 p",
"ppp %  &1111  XX<O11wwww:::       :&&11@ p",
"pp %%  1155 %yy8 111111&&%. pppppp  &&&& p",
"pp   %%1111 %%%< 11111&&%%  pppppppp 11 pp",
"pp    &111&&    &&&&&&&&%%. ppppppppp  ppp",
"pp  pp %&&%%%%%%%%%%.%&&%  ppppppppppppppp",
"pppppp  %&             & . ppppppppppppppp",
"pppppp %% ppppppppppppp %& ppppppppppppppp",
"ppppp %% ppppppppppppppp %% pppppppppppppp",
"ppppp .. ppppppppppppppp ... ppppppppppppp",
"pppp  e ppppppppppppppppp e  ppppppppppppp",
"ssssssssssssssssssssssssssssssssssssssssss"
};
