/* XPM */
static char *result[] = {
/* columns rows colors chars-per-pixel */
"42 42 22 1 ",
"  c black",
". c #080000",
"X c #180800",
"o c #37251A",
"O c #180839",
"+ c #1B2623",
"@ c #52100C",
"# c #633910",
"$ c #31364F",
"% c #464646",
"& c #636B7B",
"* c #8C5A29",
"= c #845239",
"- c #A57B21",
"; c #A55A52",
": c #AD7B63",
"> c #C59E36",
", c #DE9C7F",
"< c #737B94",
"1 c #9CA5BD",
"2 c #80FFFF",
"3 c #FFFFF7",
/* pixels */
"333333333333333333333333333333333333333333",
"222222222222222222         222222222222222",
"2222222222222222  <111<<<&%  2222222222222",
"222222222222222 %&&<<<&&&&&&% 222222222222",
"22222222222222 <11111<<<<&&&%% 22222222222",
"22222222222222 1&11&11&<<%&&$% 22222222222",
"22222222222222 1&11&11&<<%&&$% 22222222222",
"22222222222222 <&11&11&<<%&&$% 22222222222",
"22222222222222 <<11&11&<<%&&$% 22222222222",
"22222222222222 &<11111&<<&&&%% 22222222222",
"22222222222222 %+$$111<<<&$$$% 22222222222",
"22222222222222 %%%%%%%+%%%%%%%% 2222222222",
"22222222222   &&%%+%%%%%%%%+%%&&   2222222",
"222222222  111&&&&%$$$%%$$$%&&&&&<<  22222",
"2222222222  $$11111%%%%%%%%<<<&&$$ 2222222",
"222222222 22 #$$$$$111111<<$$$$$# 22222222",
"22222222222 >;**###$$$$$$$$#$$;$ # 2222222",
"22222222222  ;**############$$; 2   222222",
"2222222222222 **###########$$$$$ 22 222222",
"222222222222 #  *##########$$X@@# 22222222",
"222222222222  22 #########$$$X @   2222222",
"22222222222  22 **########$$X$  2222222222",
"222222222222222  #########$$OO,O 222222222",
"22222222222222 = @= #### # #&  , 222222222",
"22222222222222 =         ---&+,  222222222",
"222222222222222  @@@@@@@@   &+$$ 222222222",
"222222222222222 @@@@###@@# @ oX 2222222222",
"22222222222222 @@@@#####=#=  @ 22222222222",
"22222222222222 @@######====  @ 22222222222",
"2222222222222 @@ #### ###===  222222222222",
"2222222222222 @@###  @ ##=:= 2222222222222",
"2222222222222 @####. # #=::# 2222222222222",
"2222222222222  ##==. #.==:=  2222222222222",
"2222222222222  #=:=. @.==== 22222222222222",
"22222222222222 @==#  .##==# 22222222222222",
"22222222222222 @==#   ##==# 22222222222222",
"22222222222222  #= 222 @=#  22222222222222",
"22222222222222  @ 22222    222222222222222",
"22222222222222     2222 @  222222222222222",
"222222222222222    2222    222222222222222",
"222222222222222222222222222222222222222222",
"333333333333333333333333333333333333333333"
};
