/* XPM */
static char *_33e395654d54777b0e56e0c00eedb4ekZcqMX6nZcEjAXHA[] = {
/* columns rows colors chars-per-pixel */
"42 42 37 1 ",
"  c black",
". c #180800",
"X c #37251A",
"o c #101821",
"O c #180839",
"+ c #1B2623",
"@ c #52100C",
"# c #6B2910",
"$ c #633910",
"% c #216400",
"& c #1D3F54",
"* c #31364F",
"= c #3F5E76",
"- c #464646",
"; c #636B7B",
": c #8C5A29",
"> c #845239",
", c #A55A52",
"< c #B5735A",
"1 c #AD7B63",
"2 c #499600",
"3 c #75CC03",
"4 c #C59E36",
"5 c #E2CD18",
"6 c #DE9C7F",
"7 c #737B94",
"8 c #7897AE",
"9 c #848484",
"0 c #9CA5BD",
"q c #A5A5A5",
"w c #FFDE9C",
"e c #FFFF84",
"r c #80FFFF",
"t c #D6CEDE",
"y c #FFFBF0",
"u c #FFFFF7",
"i c white",
/* pixels */
"yyuuuuuuuuuuuuuuuuuuuuuuuuuuuuuuuuuuuuuuuu",
"rrrrrrrrrrrrrrrrrrrr         rrrrrrrrrrrrr",
"rrrrrrrrrrrrrrrrrr  -;7770007  rrrrrrrrrrr",
"rrrrrrrrrrrrrrrrr -;;;;;;777;;- rrrrrrrrrr",
"rrrrrrrrrrrrrrrr --;;;7777000007 rrrrrrrrr",
"rrrrrrrrrrrrrrrr -*;;-77;00;00;0 rrrrrrrrr",
"rrrrrrrrrrrrrrrr -*;;-77;00;00;0 rrrrrrrrr",
"rrrrrrrrrrrrrrrr -*;;;;7;7;;;0;7 rrrrrrrrr",
"rrrrrrrrrrrrrrrr -;;;9q97;9qq;7; rrrrrrrrr",
"rrrrrrrrrrrrrrrr -+-;;99-;;9q;+-;    rrrrr",
"rrrrrrrrrrrrrrrr -+--;;-+-;;;--700000 rrrr",
"rrrrrrrrrrrrrrr ------7;;;700000***  rrrrr",
"rrrrrrrrrrrr   ;;--+--;;000*****@@ rrrrrrr",
"rrrrrrrrrr  77;;;;;-**777**$$,@@$$4 rrrrrr",
"rrrrrrrrrrrr **;;77777***,$22$,$$:   rrrrr",
"rrrrrrrrrrrrr $*******$$66i%3t6$, rrr rrrr",
"rrrrrrrrrrrr $ #, :6$$$ 6i,6666#6,  rrrrrr",
"rrrrrrrrrrr   r ,  666  wi,6ww6,6,  rrrrrr",
"rrrrrrrrrrr rr $# $   > wi6www66, rrrrrrrr",
"rrrrrrrrrrrrr $@  =>1>8 ,6wwww$.@$ rrrrrrr",
"rrrrrrrrrrrr     = >11$8 wwww6$O   rrrrrrr",
"rrrrrrrrrrrrrrrr $ $11@>o%%w6:.O% $ rrrrrr",
"rrrrrrrrrrrrrrr o  @>1@ oww6e.O,6O r rrrrr",
"rrrrrrrrrrrrrrr    @$ +   5$.4;  6 rrrrrrr",
"rrrrrrrrrrrrrr    > @+>   .:44..6  rrrrrrr",
"rrrrrrrrrrrrr  & $     > & *: <+** rrrrrrr",
"rrrrrrrrrrrrr &&         =@  666+ rrrrrrrr",
"rrrrrrrrrrrrr &    >11   $=$  <<. rrrrrrrr",
"rrrrrrrrrrrr & @& @>11> =$>8  ..X rrrrrrrr",
"rrrrrrrrrrrr &@@= @ > $ 8$>>  XX rrrrrrrrr",
"rrrrrrrrrrrr  @@  $ $ > $>>>&XX rrrrrrrrrr",
"rrrrrrrrrrrr  @$@= @@$ 8$>>>&  rrrrrrrrrrr",
"rrrrrrrrrrrr  @$$@=   8$>>1> rrrrrrrrrrrrr",
"rrrrrrrrrrrrr  $$>>=&=$>>11$ rrrrrrrrrrrrr",
"rrrrrrrrrrrrr  $>1>$=$$>>>> rrrrrrrrrrrrrr",
"rrrrrrrrrrrrr  @>>$   $$>>$ rrrrrrrrrrrrrr",
"rrrrrrrrrrrrrr  $> rrr @>$  rrrrrrrrrrrrrr",
"rrrrrrrrrrrrrr  @ rrrrr    rrrrrrrrrrrrrrr",
"rrrrrrrrrrrrrr     rrrr @  rrrrrrrrrrrrrrr",
"rrrrrrrrrrrrrrr    rrrr    rrrrrrrrrrrrrrr",
"rrrrrrrrrrrrrrrrrrrrrrrrrrrrrrrrrrrrrrrrrr",
"uuuuuuuuuuuuuuuuuuuuuuuuuuuuuuuuuuuuuuuuuu"
};
